<svg xmlns="http://www.w3.org/2000/svg" xmlns:xlink="http://www.w3.org/1999/xlink" width="500" zoomAndPan="magnify" viewBox="0 0 375 374.999991" height="500" preserveAspectRatio="xMidYMid meet" version="1.0"><defs><clipPath id="0894531dba"><path d="M 121.882812 69.460938 L 253.132812 69.460938 L 253.132812 193.960938 L 121.882812 193.960938 Z M 121.882812 69.460938 " clip-rule="nonzero"/></clipPath><clipPath id="e92a7350cb"><path d="M 140.191406 99.351562 L 234.691406 99.351562 L 234.691406 193.851562 L 140.191406 193.851562 Z M 140.191406 99.351562 " clip-rule="nonzero"/></clipPath><clipPath id="2ea95dd1dc"><path d="M 187 246 L 287 246 L 287 305.527344 L 187 305.527344 Z M 187 246 " clip-rule="nonzero"/></clipPath><clipPath id="8bb4e3128e"><path d="M 89 246 L 189 246 L 189 305.527344 L 89 305.527344 Z M 89 246 " clip-rule="nonzero"/></clipPath><clipPath id="9584d57267"><path d="M 72 178.027344 L 303 178.027344 L 303 238 L 72 238 Z M 72 178.027344 " clip-rule="nonzero"/></clipPath><clipPath id="7ec1e73895"><path d="M 50.757812 207 L 324.507812 207 L 324.507812 264 L 50.757812 264 Z M 50.757812 207 " clip-rule="nonzero"/></clipPath></defs><g clip-path="url(#0894531dba)"><path fill="#ffffff" d="M 250.910156 107.941406 L 189.957031 70.492188 C 188.460938 69.574219 186.5625 69.574219 185.066406 70.492188 L 124.121094 107.941406 C 122.738281 108.792969 121.894531 110.296875 121.894531 111.921875 L 121.894531 189.210938 C 121.894531 191.789062 123.984375 193.878906 126.5625 193.878906 C 129.140625 193.878906 131.230469 191.789062 131.230469 189.210938 L 131.230469 114.53125 L 187.511719 79.953125 L 243.796875 114.53125 L 243.796875 189.210938 C 243.796875 191.789062 245.890625 193.878906 248.46875 193.878906 C 251.046875 193.878906 253.136719 191.789062 253.136719 189.210938 L 253.136719 111.921875 C 253.136719 110.296875 252.289062 108.792969 250.910156 107.941406 " fill-opacity="1" fill-rule="nonzero"/></g><path fill="#ffffff" d="M 213.367188 135.292969 L 213.367188 120.792969 L 198.867188 120.792969 C 198.488281 120.792969 198.105469 120.640625 197.800781 120.335938 L 187.5 110.113281 L 177.273438 120.414062 C 176.96875 120.71875 176.585938 120.871094 176.207031 120.871094 L 161.707031 120.871094 L 161.707031 135.367188 C 161.707031 135.75 161.554688 136.132812 161.25 136.4375 L 150.949219 146.660156 L 161.171875 156.886719 C 161.480469 157.191406 161.632812 157.574219 161.632812 157.953125 L 161.632812 172.453125 L 176.128906 172.453125 C 176.511719 172.453125 176.890625 172.605469 177.199219 172.910156 L 187.5 183.210938 L 197.722656 172.988281 C 198.027344 172.679688 198.410156 172.527344 198.792969 172.527344 L 213.289062 172.527344 L 213.289062 158.03125 C 213.289062 157.648438 213.441406 157.269531 213.746094 156.960938 L 224.046875 146.660156 L 213.824219 136.4375 C 213.519531 136.132812 213.367188 135.75 213.367188 135.292969 Z M 201.460938 159.328125 C 199.171875 161.847656 196.195312 163.753906 192.917969 164.746094 C 191.007812 165.355469 189.101562 165.585938 187.269531 165.585938 C 179.027344 165.585938 171.320312 160.242188 168.804688 151.925781 C 165.675781 141.777344 171.398438 130.941406 181.546875 127.816406 C 182.234375 127.585938 182.921875 127.890625 183.300781 128.425781 C 183.683594 129.035156 183.605469 129.796875 183.148438 130.257812 C 179.257812 134.527344 177.882812 140.558594 179.5625 145.976562 C 180.859375 150.09375 183.683594 153.527344 187.5 155.589844 C 191.3125 157.648438 195.738281 158.03125 199.859375 156.734375 C 199.859375 156.734375 199.9375 156.734375 199.9375 156.734375 C 200.621094 156.582031 201.308594 156.808594 201.691406 157.421875 C 201.996094 158.03125 201.921875 158.792969 201.460938 159.328125 Z M 206.652344 140.023438 L 202.074219 144.523438 L 203.140625 150.859375 C 203.21875 151.46875 202.988281 152.003906 202.53125 152.382812 C 202.300781 152.613281 201.921875 152.691406 201.613281 152.691406 C 201.386719 152.691406 201.15625 152.613281 200.929688 152.535156 L 195.28125 149.5625 L 189.636719 152.535156 C 189.101562 152.84375 188.492188 152.765625 188.03125 152.382812 C 187.574219 152.078125 187.347656 151.46875 187.421875 150.859375 L 188.492188 144.523438 L 183.914062 140.023438 C 183.53125 139.640625 183.378906 139.03125 183.53125 138.421875 C 183.683594 137.886719 184.21875 137.429688 184.75 137.351562 L 191.085938 136.4375 L 193.90625 130.714844 C 194.136719 130.179688 194.671875 129.875 195.28125 129.875 C 195.890625 129.875 196.425781 130.179688 196.65625 130.714844 L 199.476562 136.4375 L 205.8125 137.351562 C 206.421875 137.429688 206.878906 137.808594 207.03125 138.421875 C 207.183594 139.03125 207.03125 139.640625 206.652344 140.023438 Z M 206.652344 140.023438 " fill-opacity="1" fill-rule="nonzero"/><path fill="#ffffff" d="M 176.664062 146.96875 C 175.289062 142.386719 175.671875 137.429688 177.578125 133.15625 C 172.160156 137.125 169.566406 144.21875 171.703125 151.011719 C 173 155.132812 175.824219 158.566406 179.640625 160.625 C 183.453125 162.683594 187.878906 163.066406 192 161.769531 C 192.992188 161.464844 193.984375 161.082031 194.898438 160.550781 C 191.847656 160.550781 188.796875 159.785156 186.046875 158.261719 C 181.546875 155.894531 178.1875 151.851562 176.664062 146.96875 Z M 176.664062 146.96875 " fill-opacity="1" fill-rule="nonzero"/><path fill="#ffffff" d="M 197.035156 138.574219 L 195.207031 134.910156 L 193.375 138.574219 C 193.144531 139.03125 192.6875 139.335938 192.230469 139.414062 L 188.183594 140.023438 L 191.160156 142.921875 C 191.542969 143.304688 191.695312 143.761719 191.617188 144.296875 L 190.933594 148.339844 L 194.59375 146.433594 C 194.824219 146.28125 195.050781 146.28125 195.28125 146.28125 C 195.511719 146.28125 195.738281 146.355469 195.96875 146.433594 L 199.632812 148.339844 L 198.945312 144.296875 C 198.867188 143.839844 199.019531 143.304688 199.402344 142.921875 L 202.378906 140.023438 L 198.179688 139.414062 C 197.722656 139.335938 197.265625 139.03125 197.035156 138.574219 Z M 197.035156 138.574219 " fill-opacity="1" fill-rule="nonzero"/><g clip-path="url(#e92a7350cb)"><path fill="#ffffff" d="M 221.378906 133.230469 C 221.074219 132.925781 220.917969 132.546875 220.917969 132.164062 L 220.917969 113.164062 L 201.996094 113.164062 C 201.613281 113.164062 201.234375 113.011719 200.929688 112.707031 L 187.5 99.351562 L 174.070312 112.78125 C 173.765625 113.085938 173.382812 113.242188 173 113.242188 L 154 113.242188 L 154 132.164062 C 154 132.546875 153.847656 132.925781 153.542969 133.230469 L 140.191406 146.660156 L 153.621094 160.089844 C 153.925781 160.394531 154.078125 160.777344 154.078125 161.160156 L 154.078125 180.160156 L 173 180.160156 C 173.382812 180.160156 173.765625 180.3125 174.070312 180.617188 L 187.5 193.96875 L 200.929688 180.539062 C 201.234375 180.234375 201.613281 180.082031 201.996094 180.082031 L 220.996094 180.082031 L 220.996094 161.160156 C 220.996094 160.777344 221.148438 160.394531 221.453125 160.089844 L 234.808594 146.660156 Z M 216.417969 158.640625 L 216.417969 174.054688 C 216.417969 174.894531 215.730469 175.582031 214.890625 175.582031 L 199.476562 175.582031 L 188.566406 186.492188 C 188.261719 186.796875 187.878906 186.949219 187.5 186.949219 C 187.117188 186.949219 186.734375 186.796875 186.429688 186.492188 L 175.519531 175.582031 L 160.105469 175.582031 C 159.265625 175.582031 158.578125 174.894531 158.578125 174.054688 L 158.578125 158.640625 L 147.742188 147.730469 C 147.132812 147.121094 147.132812 146.203125 147.742188 145.59375 L 158.65625 134.683594 L 158.65625 119.269531 C 158.65625 118.429688 159.34375 117.742188 160.183594 117.742188 L 175.59375 117.742188 L 186.507812 106.832031 C 187.117188 106.21875 188.03125 106.21875 188.644531 106.832031 L 199.554688 117.742188 L 214.96875 117.742188 C 215.808594 117.742188 216.496094 118.429688 216.496094 119.269531 L 216.496094 134.683594 L 227.40625 145.59375 C 227.710938 145.898438 227.863281 146.28125 227.863281 146.660156 C 227.863281 147.042969 227.710938 147.425781 227.40625 147.730469 Z M 216.417969 158.640625 " fill-opacity="1" fill-rule="nonzero"/></g><g clip-path="url(#2ea95dd1dc)"><path fill="#ffffff" d="M 187.082031 263.714844 C 187.082031 263.714844 279.765625 305.007812 280.695312 305.273438 C 281.621094 305.539062 290.582031 300.746094 283.785156 292.21875 C 276.984375 283.695312 266.792969 285.292969 259.6875 280.230469 C 252.578125 275.171875 235.585938 249.859375 213.339844 254.125 C 191.097656 258.386719 191.40625 246.929688 191.40625 246.929688 L 187.082031 263.714844 " fill-opacity="1" fill-rule="nonzero"/></g><g clip-path="url(#8bb4e3128e)"><path fill="#ffffff" d="M 188.242188 263.714844 C 188.242188 263.714844 95.554688 305.007812 94.628906 305.273438 C 93.699219 305.539062 84.742188 300.746094 91.539062 292.21875 C 98.335938 283.695312 108.53125 285.292969 115.636719 280.230469 C 122.742188 275.171875 139.734375 249.859375 161.980469 254.125 C 184.226562 258.386719 183.917969 246.929688 183.917969 246.929688 L 188.242188 263.714844 " fill-opacity="1" fill-rule="nonzero"/></g><path fill="#047857" d="M 320.574219 247.679688 L 320.667969 247.820312 C 320.6875 247.816406 320.699219 247.816406 320.714844 247.816406 L 320.601562 247.707031 L 320.574219 247.679688 " fill-opacity="1" fill-rule="nonzero"/><path fill="#047857" d="M 320.347656 247.84375 C 320.402344 247.855469 320.449219 247.859375 320.492188 247.863281 C 320.542969 247.84375 320.589844 247.828125 320.628906 247.828125 C 320.546875 247.832031 320.449219 247.835938 320.347656 247.84375 Z M 320.566406 247.980469 C 320.605469 247.996094 320.632812 248.011719 320.660156 248.011719 C 320.664062 248.011719 320.664062 248.011719 320.664062 248.011719 L 320.667969 247.960938 C 320.632812 247.964844 320.601562 247.96875 320.566406 247.980469 " fill-opacity="1" fill-rule="nonzero"/><path fill="#047857" d="M 320.351562 247.84375 C 320.402344 247.855469 320.453125 247.859375 320.496094 247.863281 C 320.570312 247.875 320.621094 247.882812 320.660156 247.886719 L 320.632812 247.824219 C 320.546875 247.828125 320.453125 247.835938 320.351562 247.84375 " fill-opacity="1" fill-rule="nonzero"/><path fill="#047857" d="M 320.347656 247.84375 C 320.402344 247.855469 320.449219 247.859375 320.492188 247.863281 C 320.566406 247.875 320.617188 247.882812 320.660156 247.890625 C 320.664062 247.890625 320.664062 247.890625 320.664062 247.890625 C 320.695312 247.894531 320.714844 247.898438 320.714844 247.898438 L 320.667969 247.820312 C 320.660156 247.820312 320.644531 247.820312 320.628906 247.828125 C 320.546875 247.832031 320.449219 247.835938 320.347656 247.84375 " fill-opacity="1" fill-rule="nonzero"/><path fill="#047857" d="M 320.574219 247.679688 L 320.667969 247.820312 L 320.601562 247.703125 L 320.574219 247.679688 " fill-opacity="1" fill-rule="nonzero"/><g clip-path="url(#9584d57267)"><path fill="#ffffff" d="M 302.925781 194.050781 L 301.785156 194.128906 C 257.53125 197.3125 225.304688 205.1875 206 217.535156 C 195.632812 224.171875 190.945312 230.914062 188.875 236.125 C 188.800781 236.308594 188.726562 236.496094 188.660156 236.683594 C 188.539062 236.980469 188.441406 237.277344 188.339844 237.5625 C 188.328125 237.601562 188.316406 237.636719 188.316406 237.664062 L 186.679688 237.664062 C 186.679688 237.636719 186.667969 237.601562 186.652344 237.5625 C 186.554688 237.277344 186.457031 236.980469 186.332031 236.683594 C 186.269531 236.496094 186.195312 236.308594 186.121094 236.125 C 184.050781 230.914062 179.363281 224.171875 168.996094 217.535156 C 149.703125 205.1875 117.464844 197.3125 73.210938 194.128906 L 72.070312 194.050781 L 80.996094 178.046875 L 81.429688 178.046875 C 83.140625 178.035156 98.753906 178.117188 117.304688 181.503906 C 135.394531 184.8125 160.105469 192.058594 175.035156 207.742188 C 181.460938 214.476562 185.636719 222.324219 187.496094 231.125 C 189.355469 222.324219 193.535156 214.476562 199.96875 207.742188 C 214.898438 192.058594 239.597656 184.8125 257.691406 181.503906 C 276.242188 178.117188 291.851562 178.035156 293.574219 178.046875 L 293.996094 178.046875 L 302.925781 194.050781 " fill-opacity="1" fill-rule="nonzero"/></g><g clip-path="url(#7ec1e73895)"><path fill="#ffffff" d="M 323.984375 229.882812 L 324.035156 229.882812 L 323.910156 229.769531 L 323.941406 229.789062 L 302.46875 207.851562 C 258.058594 211.019531 225.726562 218.914062 206.359375 231.3125 C 196.542969 237.59375 191.765625 243.988281 189.496094 249.148438 C 189.414062 249.328125 189.335938 249.511719 189.261719 249.6875 C 189.171875 249.902344 189.085938 250.117188 189.003906 250.324219 C 188.945312 250.496094 188.878906 250.667969 188.820312 250.832031 C 188.773438 250.960938 188.730469 251.085938 188.683594 251.214844 L 186.3125 251.214844 C 186.265625 251.085938 186.222656 250.960938 186.175781 250.832031 C 186.121094 250.667969 186.054688 250.496094 185.992188 250.324219 C 185.914062 250.117188 185.828125 249.902344 185.738281 249.6875 C 185.664062 249.511719 185.585938 249.328125 185.503906 249.148438 C 183.230469 243.988281 178.453125 237.59375 168.640625 231.3125 C 149.273438 218.914062 116.9375 211.019531 72.53125 207.851562 L 51.058594 229.789062 L 51.085938 229.769531 L 50.960938 229.882812 L 51.011719 229.882812 L 51 229.898438 C 51.078125 229.921875 51.167969 229.953125 51.265625 229.988281 C 51.210938 229.984375 51.164062 229.976562 51.121094 229.96875 C 51.15625 230 51.203125 230.03125 51.25 230.046875 C 51.164062 230.035156 51.082031 230.054688 51.019531 230.0625 C 51.082031 230.09375 51.148438 230.125 51.226562 230.144531 L 51.238281 230.148438 C 51.40625 230.160156 51.621094 230.175781 51.894531 230.195312 C 57.746094 232.113281 80.609375 238.851562 113.894531 239.382812 C 151.300781 239.988281 177.6875 261.777344 179.738281 263.523438 L 195.257812 263.523438 C 197.308594 261.777344 223.699219 239.988281 261.105469 239.382812 C 294.386719 238.851562 317.253906 232.113281 323.105469 230.195312 C 323.375 230.175781 323.59375 230.160156 323.761719 230.148438 L 323.773438 230.144531 C 323.847656 230.125 323.914062 230.09375 323.976562 230.0625 C 323.914062 230.054688 323.835938 230.035156 323.746094 230.046875 C 323.792969 230.03125 323.839844 230 323.878906 229.96875 C 323.835938 229.976562 323.789062 229.984375 323.730469 229.988281 C 323.828125 229.953125 323.921875 229.921875 324 229.898438 L 323.984375 229.882812 " fill-opacity="1" fill-rule="nonzero"/></g></svg>